<svg width="47" height="48" viewBox="0 0 47 48" fill="none" xmlns="http://www.w3.org/2000/svg">
<path d="M0.586797 45L4.3548 36.54H5.4228L9.2508 45H7.9668L6.9228 42.6L7.4508 42.936H2.3268L2.8908 42.6L1.8468 45H0.586797ZM4.8708 37.908L3.0468 42.216L2.7588 41.94H7.0188L6.7788 42.216L4.9188 37.908H4.8708ZM12.8545 45.108C12.2465 45.108 11.7145 44.984 11.2585 44.736C10.8105 44.48 10.4625 44.116 10.2145 43.644C9.97445 43.164 9.85445 42.596 9.85445 41.94C9.85445 41.292 9.97845 40.736 10.2265 40.272C10.4745 39.808 10.8225 39.456 11.2705 39.216C11.7185 38.968 12.2465 38.844 12.8545 38.844C13.2465 38.844 13.6265 38.912 13.9945 39.048C14.3625 39.176 14.6665 39.36 14.9065 39.6L14.5105 40.452C14.2865 40.236 14.0345 40.076 13.7545 39.972C13.4745 39.86 13.2025 39.804 12.9385 39.804C12.3625 39.804 11.9105 39.988 11.5825 40.356C11.2545 40.724 11.0905 41.256 11.0905 41.952C11.0905 42.656 11.2545 43.196 11.5825 43.572C11.9105 43.948 12.3625 44.136 12.9385 44.136C13.1945 44.136 13.4625 44.088 13.7425 43.992C14.0225 43.888 14.2785 43.724 14.5105 43.5L14.9065 44.352C14.6585 44.592 14.3465 44.78 13.9705 44.916C13.6025 45.044 13.2305 45.108 12.8545 45.108ZM18.7255 45.108C18.1175 45.108 17.5855 44.984 17.1295 44.736C16.6815 44.48 16.3335 44.116 16.0855 43.644C15.8455 43.164 15.7255 42.596 15.7255 41.94C15.7255 41.292 15.8495 40.736 16.0975 40.272C16.3455 39.808 16.6935 39.456 17.1415 39.216C17.5895 38.968 18.1175 38.844 18.7255 38.844C19.1175 38.844 19.4975 38.912 19.8655 39.048C20.2335 39.176 20.5375 39.36 20.7775 39.6L20.3815 40.452C20.1575 40.236 19.9055 40.076 19.6255 39.972C19.3455 39.86 19.0735 39.804 18.8095 39.804C18.2335 39.804 17.7815 39.988 17.4535 40.356C17.1255 40.724 16.9615 41.256 16.9615 41.952C16.9615 42.656 17.1255 43.196 17.4535 43.572C17.7815 43.948 18.2335 44.136 18.8095 44.136C19.0655 44.136 19.3335 44.088 19.6135 43.992C19.8935 43.888 20.1495 43.724 20.3815 43.5L20.7775 44.352C20.5295 44.592 20.2175 44.78 19.8415 44.916C19.4735 45.044 19.1015 45.108 18.7255 45.108ZM24.5366 45.108C23.9366 45.108 23.4166 44.984 22.9766 44.736C22.5366 44.48 22.1966 44.12 21.9566 43.656C21.7166 43.184 21.5966 42.624 21.5966 41.976C21.5966 41.328 21.7166 40.772 21.9566 40.308C22.1966 39.836 22.5366 39.476 22.9766 39.228C23.4166 38.972 23.9366 38.844 24.5366 38.844C25.1366 38.844 25.6566 38.972 26.0966 39.228C26.5446 39.476 26.8886 39.836 27.1286 40.308C27.3766 40.772 27.5006 41.328 27.5006 41.976C27.5006 42.624 27.3766 43.184 27.1286 43.656C26.8886 44.12 26.5446 44.48 26.0966 44.736C25.6566 44.984 25.1366 45.108 24.5366 45.108ZM24.5366 44.16C25.0646 44.16 25.4846 43.976 25.7966 43.608C26.1086 43.24 26.2646 42.696 26.2646 41.976C26.2646 41.256 26.1086 40.716 25.7966 40.356C25.4846 39.988 25.0646 39.804 24.5366 39.804C24.0166 39.804 23.6006 39.988 23.2886 40.356C22.9766 40.716 22.8206 41.256 22.8206 41.976C22.8206 42.696 22.9726 43.24 23.2766 43.608C23.5886 43.976 24.0086 44.16 24.5366 44.16ZM31.0653 45.108C30.3373 45.108 29.7893 44.912 29.4213 44.52C29.0613 44.12 28.8813 43.508 28.8813 42.684V38.952H30.0933V42.66C30.0933 43.164 30.1973 43.536 30.4053 43.776C30.6133 44.016 30.9293 44.136 31.3533 44.136C31.8333 44.136 32.2213 43.976 32.5173 43.656C32.8133 43.336 32.9613 42.912 32.9613 42.384V38.952H34.1733V45H32.9973V43.704H33.1533C32.9853 44.152 32.7173 44.5 32.3493 44.748C31.9813 44.988 31.5533 45.108 31.0653 45.108ZM35.9485 45V40.404C35.9485 40.172 35.9365 39.936 35.9125 39.696C35.8965 39.448 35.8765 39.2 35.8525 38.952H37.0285L37.1365 40.224H36.9925C37.1765 39.776 37.4605 39.436 37.8445 39.204C38.2285 38.964 38.6725 38.844 39.1765 38.844C39.8885 38.844 40.4245 39.04 40.7845 39.432C41.1525 39.824 41.3365 40.432 41.3365 41.256V45H40.1245V41.328C40.1245 40.792 40.0165 40.408 39.8005 40.176C39.5925 39.936 39.2725 39.816 38.8405 39.816C38.3285 39.816 37.9205 39.976 37.6165 40.296C37.3125 40.608 37.1605 41.032 37.1605 41.568V45H35.9485ZM45.4138 45.108C44.7578 45.108 44.2618 44.932 43.9258 44.58C43.5898 44.22 43.4218 43.684 43.4218 42.972V39.888H42.2458V38.952H43.4218V37.356L44.6338 37.032V38.952H46.3138V39.888H44.6338V42.864C44.6338 43.312 44.7138 43.632 44.8738 43.824C45.0338 44.016 45.2658 44.112 45.5698 44.112C45.7218 44.112 45.8538 44.1 45.9658 44.076C46.0858 44.044 46.1938 44.008 46.2898 43.968V44.952C46.1698 45 46.0298 45.036 45.8698 45.06C45.7098 45.092 45.5578 45.108 45.4138 45.108Z" fill="#393939" fill-opacity="0.5"/>
<path d="M34 27C34 21.4158 29.5228 16.8889 24 16.8889C18.4772 16.8889 14 21.4158 14 27M24 12.5556C20.8441 12.5556 18.2857 9.96876 18.2857 6.77778C18.2857 3.5868 20.8441 1 24 1C27.1559 1 29.7143 3.5868 29.7143 6.77778C29.7143 9.96876 27.1559 12.5556 24 12.5556Z" stroke="#393939" stroke-opacity="0.5" stroke-width="1.5" stroke-linecap="round" stroke-linejoin="round"/>
</svg>
