<svg width="26" height="26" viewBox="0 0 26 26" fill="none" xmlns="http://www.w3.org/2000/svg">
<path d="M1 11.3134C1 10.0892 1.56058 8.93246 2.52142 8.1739L10.3964 1.95677C11.8497 0.809481 13.9004 0.80948 15.3536 1.95677L23.2286 8.1739C24.1895 8.93246 24.75 10.0892 24.75 11.3134V21.0001C24.75 23.2092 22.9592 25.0001 20.75 25.0001H17.625C17.0727 25.0001 16.625 24.5523 16.625 24.0001V19.5C16.625 18.3955 15.7296 17.5 14.625 17.5H11.125C10.0204 17.5 9.12502 18.3955 9.12502 19.5V24.0001C9.12502 24.5523 8.6773 25.0001 8.12502 25.0001H5C2.79086 25.0001 1 23.2092 1 21.0001L1 11.3134Z" stroke="#393939" stroke-opacity="0.5" stroke-width="1.5"/>
</svg>
