<svg width="22" height="22" viewBox="0 0 22 22" fill="none" xmlns="http://www.w3.org/2000/svg">
<path d="M11.0005 0.5C11.118 0.5 11.2306 0.546662 11.3137 0.629723C11.3967 0.712782 11.4434 0.825436 11.4434 0.942899C11.4434 1.06036 11.3967 1.17302 11.3137 1.25608C11.2306 1.33914 11.118 1.3858 11.0005 1.3858C8.45052 1.3858 6.00498 2.39877 4.20188 4.20188C2.39877 6.00498 1.3858 8.45052 1.3858 11.0005C1.3858 13.5505 2.39877 15.996 4.20188 17.7991C6.00498 19.6022 8.45052 20.6152 11.0005 20.6152C11.118 20.6152 11.2306 20.6618 11.3137 20.7449C11.3967 20.828 11.4434 20.9406 11.4434 21.0581C11.4434 21.1755 11.3967 21.2882 11.3137 21.3713C11.2306 21.4543 11.118 21.501 11.0005 21.501C8.21559 21.501 5.54475 20.3947 3.57552 18.4255C1.6063 16.4562 0.5 13.7854 0.5 11.0005C0.5 8.21559 1.6063 5.54475 3.57552 3.57552C5.54475 1.6063 8.21559 0.5 11.0005 0.5Z" stroke="#2D8E00"/>
<path d="M17.5988 15.0848L17.5925 15.091L17.5865 15.0975C17.546 15.141 17.4971 15.1759 17.4428 15.2001C17.3884 15.2243 17.3298 15.2373 17.2703 15.2384C17.2108 15.2394 17.1518 15.2285 17.0966 15.2062C17.0415 15.1839 16.9914 15.1508 16.9493 15.1087C16.9073 15.0667 16.8741 15.0166 16.8518 14.9614C16.8296 14.9063 16.8186 14.8472 16.8197 14.7877C16.8207 14.7283 16.8337 14.6696 16.8579 14.6153C16.8821 14.561 16.917 14.5121 16.9606 14.4715L16.967 14.4655L16.9733 14.4593L19.1356 12.2969L19.9892 11.4433H18.7821H8.48562C8.36816 11.4433 8.25551 11.3967 8.17245 11.3136C8.08939 11.2305 8.04272 11.1179 8.04272 11.0004C8.04272 10.883 8.08939 10.7703 8.17245 10.6872C8.25551 10.6042 8.36816 10.5575 8.48562 10.5575H18.7821H19.9892L19.1356 9.70397L16.9806 7.54899C16.9055 7.46568 16.8647 7.35688 16.8667 7.24453C16.8687 7.12979 16.9152 7.02032 16.9964 6.93917C17.0775 6.85802 17.187 6.81154 17.3017 6.80952C17.4141 6.80754 17.5229 6.84833 17.6062 6.92347L21.3702 10.6874C21.4531 10.7705 21.4997 10.8831 21.4997 11.0004C21.4997 11.1178 21.4531 11.2304 21.3702 11.3134L17.5988 15.0848Z" stroke="#2D8E00"/>
</svg>
