<svg width="25" height="27" viewBox="0 0 25 27" fill="none" xmlns="http://www.w3.org/2000/svg">
<g clip-path="url(#clip0_1_9514)">
<path d="M20.5648 17.0753V11.9453C20.5648 8.13484 18.3068 4.81212 15.1979 3.571C15.2342 3.37501 15.2543 3.17472 15.2543 2.97437C15.2544 1.33261 14.0205 0 12.5003 0C10.9802 0 9.74629 1.33261 9.74629 2.97437C9.74629 3.17036 9.76643 3.36628 9.79868 3.55355C8.73017 3.96292 7.74225 4.61177 6.89952 5.49144C5.31082 7.1463 4.43584 9.3716 4.43584 11.7581V17.0753C4.43584 17.2626 4.2947 17.4194 4.11726 17.4194C2.62937 17.4194 1.35918 18.63 1.22208 20.1717C1.14545 21.0296 1.40759 21.8831 1.94387 22.5189C2.47611 23.1504 3.23824 23.5162 4.03255 23.5162H8.89548C9.09709 25.4715 10.6374 27.0001 12.5003 27.0001C14.3632 27.0001 15.9036 25.4715 16.1052 23.5162H20.9681C21.7625 23.5162 22.5246 23.1504 23.0568 22.5189C23.589 21.8831 23.8512 21.0296 23.7786 20.1717C23.6415 18.63 22.3673 17.4194 20.8834 17.4194C20.706 17.4193 20.5648 17.2669 20.5648 17.0753ZM12.5003 1.7419C13.1293 1.7419 13.6414 2.29497 13.6414 2.9743C13.6414 3.03088 13.6334 3.08316 13.6253 3.13974C13.3511 3.09618 13.0728 3.06571 12.7946 3.05698C12.3148 3.03953 11.843 3.07444 11.3753 3.14411C11.3672 3.08753 11.3591 3.03524 11.3591 2.97866C11.3592 2.29497 11.8713 1.7419 12.5003 1.7419ZM12.5003 25.258C11.5286 25.258 10.7141 24.509 10.5245 23.5161H14.4761C14.2867 24.509 13.4722 25.258 12.5003 25.258ZM22.1737 20.3371C22.206 20.7116 22.0971 21.0731 21.8673 21.3474C21.6294 21.6218 21.3148 21.7741 20.9681 21.7741H4.03262C3.68583 21.7741 3.37136 21.6217 3.13743 21.3474C2.90357 21.0731 2.79468 20.7116 2.82694 20.3371C2.88337 19.6795 3.45197 19.1613 4.11726 19.1613C5.18181 19.1613 6.04871 18.225 6.04871 17.0753V11.7581C6.04871 9.85064 6.7503 8.06954 8.02049 6.74565C9.23419 5.47843 10.8149 4.79031 12.5003 4.79031C12.581 4.79031 12.6576 4.7903 12.7382 4.79467C16.1616 4.92528 18.952 8.13484 18.952 11.9453V17.0753C18.952 18.225 19.8189 19.1613 20.8834 19.1613C21.5487 19.1613 22.1133 19.6795 22.1737 20.3371Z" fill="#2D8E00"/>
</g>
<defs>
<clipPath id="clip0_1_9514">
<rect width="25" height="27" fill="white"/>
</clipPath>
</defs>
</svg>
