<svg width="23" height="27" viewBox="0 0 23 27" fill="none" xmlns="http://www.w3.org/2000/svg">
<path d="M19.5651 17.0753V11.9453C19.5651 8.13484 17.307 4.81212 14.1981 3.571C14.2344 3.37501 14.2546 3.17472 14.2546 2.97437C14.2546 1.33261 13.0207 0 11.5006 0C9.98043 0 8.74654 1.33261 8.74654 2.97437C8.74654 3.17036 8.76667 3.36628 8.79893 3.55355C7.73041 3.96292 6.7425 4.61177 5.89977 5.49144C4.31107 7.1463 3.43608 9.3716 3.43608 11.7581V17.0753C3.43608 17.2626 3.29494 17.4194 3.11751 17.4194C1.62961 17.4194 0.359423 18.63 0.222324 20.1717C0.145693 21.0296 0.407839 21.8831 0.944117 22.5189C1.47635 23.1504 2.23848 23.5162 3.0328 23.5162H7.89573C8.09733 25.4715 9.63768 27.0001 11.5006 27.0001C13.3635 27.0001 14.9038 25.4715 15.1054 23.5162H19.9684C20.7627 23.5162 21.5248 23.1504 22.057 22.5189C22.5893 21.8831 22.8514 21.0296 22.7788 20.1717C22.6417 18.63 21.3676 17.4194 19.8837 17.4194C19.7062 17.4193 19.5651 17.2669 19.5651 17.0753ZM11.5006 1.7419C12.1296 1.7419 12.6417 2.29497 12.6417 2.9743C12.6417 3.03088 12.6336 3.08316 12.6255 3.13974C12.3513 3.09618 12.0731 3.06571 11.7948 3.05698C11.315 3.03953 10.8432 3.07444 10.3755 3.14411C10.3674 3.08753 10.3593 3.03524 10.3593 2.97866C10.3595 2.29497 10.8716 1.7419 11.5006 1.7419ZM11.5006 25.258C10.5288 25.258 9.71431 24.509 9.52476 23.5161H13.4763C13.2869 24.509 12.4724 25.258 11.5006 25.258ZM21.174 20.3371C21.2062 20.7116 21.0973 21.0731 20.8675 21.3474C20.6296 21.6218 20.3151 21.7741 19.9684 21.7741H3.03287C2.68608 21.7741 2.37161 21.6217 2.13768 21.3474C1.90381 21.0731 1.79493 20.7116 1.82718 20.3371C1.88361 19.6795 2.45221 19.1613 3.11751 19.1613C4.18205 19.1613 5.04896 18.225 5.04896 17.0753V11.7581C5.04896 9.85064 5.75055 8.06954 7.02074 6.74565C8.23443 5.47843 9.81512 4.79031 11.5006 4.79031C11.5813 4.79031 11.6578 4.7903 11.7385 4.79467C15.1619 4.92528 17.9522 8.13484 17.9522 11.9453V17.0753C17.9522 18.225 18.8191 19.1613 19.8837 19.1613C20.549 19.1613 21.1135 19.6795 21.174 20.3371Z" fill="#393939" fill-opacity="0.5"/>
</svg>
