<svg width="23" height="26" viewBox="0 0 23 26" fill="none" xmlns="http://www.w3.org/2000/svg">
<path d="M15.4378 19.6667V21C15.4378 23.2091 13.6748 25 11.5002 25C9.32552 25 7.56261 23.2091 7.56261 21V19.6667M15.4378 19.6667H7.56261M15.4378 19.6667H20.1504C20.6524 19.6667 20.9047 19.6667 21.108 19.597C21.4963 19.4639 21.8002 19.1542 21.9312 18.7597C22 18.5524 22 18.2953 22 17.7812C22 17.5563 21.9997 17.4438 21.9824 17.3366C21.9497 17.1339 21.8723 16.9418 21.7543 16.775C21.692 16.6868 21.6128 16.6064 21.4567 16.4478L20.9455 15.9284C20.7805 15.7608 20.6878 15.5335 20.6878 15.2965V10.3333C20.6878 5.17867 16.5744 0.999987 11.5002 1C6.42599 1.00001 2.31252 5.17869 2.31252 10.3333V15.2966C2.31252 15.5336 2.21965 15.7608 2.0547 15.9284L1.54347 16.4477C1.38688 16.6068 1.3085 16.6867 1.2461 16.775C1.12818 16.9418 1.05007 17.1339 1.01733 17.3366C1 17.4438 1 17.5563 1 17.7813C1 18.2953 1 18.5523 1.06884 18.7597C1.19983 19.1541 1.50506 19.4639 1.89339 19.597C2.09669 19.6667 2.34798 19.6667 2.85007 19.6667H7.56261" stroke="#2D8E00" stroke-width="1.5" stroke-linecap="round" stroke-linejoin="round"/>
</svg>
