<svg width="22" height="22" viewBox="0 0 22 22" fill="none" xmlns="http://www.w3.org/2000/svg">
<g clip-path="url(#clip0_1_8696)">
<path d="M17.3253 13.0981H12.5065C12.9041 11.905 13.1154 10.9009 13.1503 10.0444C13.2325 8.02439 12.2787 7.22462 11.4642 6.9094C11.43 6.89618 11.3946 6.88664 11.3584 6.88095C10.7272 6.78135 10.5025 7.07831 10.3536 7.41398L10.334 7.45785C10.3123 7.50602 10.298 7.55725 10.2918 7.60975C10.1644 8.70129 9.8217 9.75671 9.28346 10.7148C8.74521 11.673 8.02217 12.5147 7.15624 13.1914C7.06543 13.047 6.93951 12.928 6.79024 12.8455C6.64097 12.763 6.47322 12.7197 6.30266 12.7196H2.74361C2.47604 12.7199 2.21951 12.8263 2.03032 13.0155C1.84112 13.2047 1.73469 13.4612 1.7344 13.7288V20.9908C1.73469 21.2583 1.84112 21.5149 2.03032 21.7041C2.21951 21.8933 2.47604 21.9997 2.74361 22H6.30266C6.5097 21.9997 6.71168 21.9359 6.88128 21.8172C7.05088 21.6984 7.17993 21.5305 7.25098 21.336C7.64273 21.6469 8.09862 21.8668 8.58572 21.98C8.62228 21.9886 8.65965 21.9931 8.69718 21.9935C9.10053 21.9978 9.5814 22 10.1359 22C10.6891 22 11.3155 21.9978 12.0105 21.9935H16.5501C16.8155 21.9936 17.0762 21.9231 17.3055 21.7894C17.5347 21.6557 17.7243 21.4634 17.8549 21.2324C17.9855 21.0013 18.0523 20.7397 18.0486 20.4743C18.0449 20.2089 17.9707 19.9493 17.8337 19.7219C18.1366 19.4924 18.3409 19.1561 18.405 18.7814C18.4691 18.4068 18.3882 18.0217 18.1788 17.7045C18.4729 17.4552 18.6595 17.102 18.6995 16.7186C18.7396 16.3351 18.6302 15.951 18.394 15.6463C18.601 15.4357 18.7411 15.1688 18.7968 14.8788C18.8526 14.5889 18.8214 14.289 18.7072 14.0168C18.593 13.7445 18.4009 13.5121 18.155 13.3487C17.9092 13.1853 17.6205 13.0981 17.3253 13.0982V13.0981ZM6.28062 20.9687H2.76578V13.7508H6.28062V20.9687ZM14.3092 16.0954H17.209C17.3321 16.0966 17.4499 16.1463 17.5366 16.2339C17.6233 16.3214 17.6719 16.4396 17.6719 16.5628C17.6719 16.686 17.6233 16.8042 17.5366 16.8917C17.4499 16.9792 17.3321 17.029 17.209 17.0302H14.7226C14.5859 17.0302 14.4547 17.0845 14.358 17.1812C14.2613 17.2779 14.207 17.409 14.207 17.5458C14.207 17.6825 14.2613 17.8137 14.358 17.9104C14.4547 18.0071 14.5859 18.0614 14.7226 18.0614H16.9278C17.051 18.0626 17.1687 18.1124 17.2554 18.1999C17.3421 18.2874 17.3907 18.4056 17.3907 18.5288C17.3907 18.652 17.3421 18.7702 17.2554 18.8577C17.1687 18.9453 17.051 18.995 16.9278 18.9962H15.085C14.9482 18.9962 14.8171 19.0505 14.7204 19.1472C14.6237 19.2439 14.5693 19.3751 14.5693 19.5118C14.5693 19.6486 14.6237 19.7797 14.7204 19.8764C14.8171 19.9731 14.9482 20.0275 15.085 20.0275H16.5502C16.6734 20.0286 16.7911 20.0784 16.8778 20.1659C16.9645 20.2535 17.0131 20.3717 17.0131 20.4949C17.0131 20.618 16.9645 20.7362 16.8778 20.8238C16.7911 20.9113 16.6734 20.9611 16.5502 20.9622H12.0074C10.6521 20.9706 9.56245 20.9708 8.76752 20.9629C8.46268 20.8848 8.17668 20.7461 7.92661 20.5551C7.67653 20.3641 7.4675 20.1246 7.312 19.8511V14.3558C8.38274 13.6239 9.28919 12.6769 9.97352 11.5751C10.6579 10.4734 11.1051 9.24107 11.2866 7.95685C11.6344 8.13843 12.1768 8.60632 12.1202 10.0025C12.0833 10.9108 11.8133 12.0335 11.2952 13.4349C11.2664 13.5128 11.2568 13.5966 11.2674 13.6791C11.2779 13.7615 11.3082 13.8402 11.3557 13.9084C11.4032 13.9766 11.4665 14.0323 11.5401 14.0708C11.6138 14.1093 11.6957 14.1294 11.7788 14.1294H17.3253C17.4485 14.1305 17.5662 14.1803 17.6529 14.2678C17.7396 14.3553 17.7882 14.4736 17.7882 14.5967C17.7882 14.7199 17.7396 14.8381 17.6529 14.9257C17.5662 15.0132 17.4485 15.063 17.3253 15.0641H14.3092C14.1725 15.0641 14.0413 15.1185 13.9446 15.2152C13.8479 15.3119 13.7936 15.443 13.7936 15.5798C13.7936 15.7165 13.8479 15.8477 13.9446 15.9444C14.0413 16.0411 14.1725 16.0954 14.3092 16.0954ZM3.0385 14.6139C3.0385 14.4772 3.09282 14.346 3.18952 14.2493C3.28622 14.1526 3.41737 14.0983 3.55413 14.0983H3.93251C4.06926 14.0983 4.20041 14.1526 4.29711 14.2493C4.39381 14.346 4.44813 14.4772 4.44813 14.6139C4.44813 14.7507 4.39381 14.8818 4.29711 14.9785C4.20041 15.0752 4.06926 15.1295 3.93251 15.1295H3.55417C3.41742 15.1295 3.28626 15.0752 3.18957 14.9785C3.09287 14.8818 3.03854 14.7507 3.03854 14.6139H3.0385ZM14.4708 2.52169C14.4403 2.42771 14.3834 2.34448 14.3069 2.28191C14.2304 2.21935 14.1375 2.18008 14.0394 2.16879L12.2272 1.9603L11.4689 0.301278C11.4278 0.211401 11.3618 0.135222 11.2787 0.0818094C11.1955 0.0283966 11.0988 0 11 0C10.9011 0 10.8044 0.0283966 10.7213 0.0818094C10.6381 0.135222 10.5721 0.211401 10.531 0.301278L9.77269 1.9603L7.96057 2.16879C7.86241 2.18009 7.76956 2.21936 7.69307 2.28192C7.61659 2.34449 7.55969 2.42771 7.52916 2.52169C7.49862 2.61567 7.49573 2.71644 7.52084 2.81201C7.54594 2.90758 7.59797 2.99393 7.67075 3.06077L9.01425 4.29462L8.65254 6.08251C8.63295 6.17936 8.6416 6.27981 8.67747 6.37189C8.71334 6.46397 8.77491 6.5438 8.85485 6.60188C8.9348 6.65996 9.02975 6.69385 9.1284 6.69951C9.22706 6.70517 9.32526 6.68236 9.41132 6.6338L11 5.7373L12.5886 6.6338C12.6746 6.68236 12.7728 6.70517 12.8715 6.69951C12.9701 6.69385 13.0651 6.65996 13.145 6.60188C13.225 6.5438 13.2866 6.46397 13.3224 6.37189C13.3583 6.27981 13.3669 6.17936 13.3473 6.08251L12.9857 4.29462L14.3292 3.06077C14.402 2.99393 14.454 2.90759 14.4791 2.81202C14.5042 2.71644 14.5013 2.61567 14.4708 2.52169ZM12.0738 3.7319C12.0084 3.79196 11.9597 3.86788 11.9322 3.95232C11.9048 4.03676 11.8996 4.12686 11.9172 4.21388L12.1129 5.18124L11.2535 4.69621C11.1762 4.65258 11.0889 4.62965 11.0001 4.62965C10.9114 4.62965 10.8241 4.65258 10.7467 4.69621L9.88737 5.18124L10.0831 4.21388C10.1007 4.12686 10.0955 4.03676 10.068 3.95232C10.0406 3.86788 9.99183 3.79196 9.92643 3.7319L9.19919 3.0643L10.1796 2.9515C10.2679 2.94136 10.352 2.9086 10.4238 2.85641C10.4956 2.80422 10.5528 2.73436 10.5897 2.6536L11 1.75598L11.4102 2.6536C11.4471 2.73436 11.5043 2.80421 11.5761 2.8564C11.6479 2.90859 11.732 2.94135 11.8202 2.9515L12.8007 3.0643L12.0738 3.7319ZM20.6134 4.45528C20.5828 4.3613 20.5259 4.27807 20.4494 4.21551C20.3729 4.15294 20.2801 4.11367 20.1819 4.10238L18.7746 3.94043L18.1859 2.65201C18.1449 2.56214 18.0788 2.48596 17.9957 2.43254C17.9125 2.37913 17.8158 2.35073 17.717 2.35073C17.6182 2.35073 17.5214 2.37913 17.4383 2.43254C17.3551 2.48596 17.2891 2.56214 17.248 2.65201L16.659 3.94043L15.2516 4.10238C15.1534 4.11368 15.0606 4.15295 14.9841 4.21552C14.9076 4.27808 14.8507 4.36131 14.8202 4.45528C14.7896 4.54926 14.7868 4.65003 14.8119 4.74561C14.837 4.84118 14.889 4.92752 14.9618 4.99437L16.0051 5.95257L15.7243 7.34106C15.7047 7.43792 15.7133 7.53836 15.7492 7.63044C15.785 7.72252 15.8466 7.80235 15.9266 7.86044C16.0065 7.91852 16.1015 7.95241 16.2001 7.95807C16.2988 7.96372 16.397 7.94091 16.483 7.89235L17.7168 7.19626L18.9505 7.89235C19.0366 7.94091 19.1348 7.96372 19.2334 7.95807C19.3321 7.95241 19.427 7.91852 19.507 7.86044C19.5869 7.80235 19.6485 7.72252 19.6844 7.63044C19.7202 7.53836 19.7289 7.43792 19.7093 7.34106L19.4284 5.95257L20.4718 4.99437C20.5446 4.92752 20.5966 4.84117 20.6217 4.7456C20.6468 4.65002 20.6439 4.54925 20.6134 4.45528ZM18.5165 5.38985C18.4511 5.44991 18.4023 5.52584 18.3749 5.61029C18.3474 5.69474 18.3423 5.78484 18.3599 5.87188L18.4747 6.43984L17.9701 6.15504C17.8928 6.1114 17.8055 6.08847 17.7167 6.08847C17.6279 6.08847 17.5406 6.1114 17.4633 6.15504L16.9587 6.43984L17.0736 5.87188C17.0912 5.78484 17.086 5.69474 17.0586 5.61029C17.0311 5.52584 16.9823 5.44991 16.9169 5.38985L16.4901 4.99789L17.0659 4.93168C17.1541 4.92153 17.2382 4.88878 17.3101 4.83659C17.3819 4.78439 17.439 4.71453 17.476 4.63377L17.7168 4.10676L17.9577 4.63377C17.9946 4.71453 18.0517 4.78439 18.1236 4.83659C18.1954 4.88878 18.2795 4.92153 18.3677 4.93168L18.9435 4.99789L18.5165 5.38985ZM7.18004 4.45528C7.14951 4.3613 7.0926 4.27807 7.01611 4.21551C6.93962 4.15294 6.84677 4.11367 6.74859 4.10238L5.34098 3.94043L4.75231 2.65201C4.71123 2.56214 4.64519 2.48596 4.56205 2.43254C4.47891 2.37913 4.38217 2.35073 4.28335 2.35073C4.18453 2.35073 4.08779 2.37913 4.00465 2.43254C3.92151 2.48596 3.85547 2.56214 3.81439 2.65201L3.22533 3.94043L1.81802 4.10238C1.71985 4.11367 1.62699 4.15294 1.5505 4.2155C1.47401 4.27806 1.41711 4.36129 1.38657 4.45527C1.35603 4.54924 1.35314 4.65002 1.37824 4.7456C1.40334 4.84117 1.45537 4.92752 1.52815 4.99437L2.57156 5.95257L2.29067 7.34106C2.27108 7.43792 2.27974 7.53836 2.3156 7.63044C2.35147 7.72252 2.41304 7.80235 2.49299 7.86044C2.57293 7.91852 2.66788 7.95241 2.76654 7.95807C2.86519 7.96372 2.9634 7.94091 3.04946 7.89235L4.28322 7.19626L5.51694 7.89235C5.603 7.94091 5.7012 7.96372 5.79986 7.95807C5.89851 7.95241 5.99346 7.91852 6.07341 7.86044C6.15335 7.80235 6.21492 7.72252 6.25079 7.63044C6.28666 7.53836 6.29531 7.43792 6.27572 7.34106L5.99484 5.95257L7.0382 4.99437C7.11102 4.92755 7.1631 4.84122 7.18825 4.74564C7.2134 4.65007 7.21055 4.54928 7.18004 4.45528ZM5.08317 5.38985C5.01777 5.44991 4.96898 5.52584 4.94155 5.61029C4.91411 5.69474 4.90894 5.78484 4.92655 5.87188L5.04145 6.43984L4.53682 6.15504C4.45947 6.11136 4.37214 6.08841 4.2833 6.08841C4.19447 6.08841 4.10714 6.11136 4.02979 6.15504L3.52516 6.43984L3.64002 5.87188C3.65763 5.78484 3.65246 5.69474 3.62502 5.61029C3.59758 5.52584 3.5488 5.44991 3.4834 5.38985L3.05663 4.99789L3.63241 4.93168C3.72063 4.92153 3.80473 4.88878 3.87657 4.83659C3.94841 4.78439 4.00555 4.71453 4.04247 4.63377L4.28335 4.10676L4.52397 4.63377C4.56089 4.71453 4.61803 4.78439 4.68987 4.83659C4.76171 4.88878 4.84581 4.92153 4.93402 4.93168L5.50981 4.99789L5.08317 5.38985Z" fill="#2D8E00"/>
</g>
<defs>
<clipPath id="clip0_1_8696">
<rect width="22" height="22" fill="white"/>
</clipPath>
</defs>
</svg>
