<svg width="30" height="18" viewBox="0 0 30 18" fill="none" xmlns="http://www.w3.org/2000/svg">
<path d="M28.5938 0.0625H1.40625C1.28193 0.0625 1.1627 0.105301 1.07479 0.181488C0.986886 0.257675 0.9375 0.361006 0.9375 0.46875V17.5312C0.9375 17.639 0.986886 17.7423 1.07479 17.8185C1.1627 17.8947 1.28193 17.9375 1.40625 17.9375H28.5938C28.7181 17.9375 28.8373 17.8947 28.9252 17.8185C29.0131 17.7423 29.0625 17.639 29.0625 17.5312V0.46875C29.0625 0.361006 29.0131 0.257675 28.9252 0.181488C28.8373 0.105301 28.7181 0.0625 28.5938 0.0625ZM14.5312 10.9906C14.0017 10.8971 13.5258 10.648 13.1839 10.2852C12.8421 9.92253 12.6553 9.46859 12.6553 9.00025C12.6553 8.53192 12.8421 8.07798 13.1839 7.71527C13.5258 7.35256 14.0017 7.10337 14.5312 7.00988V10.9906ZM15.4688 7.00988C15.9983 7.10337 16.4742 7.35256 16.8161 7.71527C17.1579 8.07798 17.3447 8.53192 17.3447 9.00025C17.3447 9.46859 17.1579 9.92253 16.8161 10.2852C16.4742 10.648 15.9983 10.8971 15.4688 10.9906V7.00988ZM6.09375 11.4375C6.21807 11.4375 6.3373 11.3947 6.42521 11.3185C6.51311 11.2423 6.5625 11.139 6.5625 11.0312V6.96875C6.5625 6.86101 6.51311 6.75767 6.42521 6.68149C6.3373 6.6053 6.21807 6.5625 6.09375 6.5625H1.875V3.3125H2.34375C4.08423 3.3125 5.75343 3.91172 6.98414 4.97833C8.21485 6.04494 8.90625 7.49158 8.90625 9C8.90625 10.5084 8.21485 11.9551 6.98414 13.0217C5.75343 14.0883 4.08423 14.6875 2.34375 14.6875H1.875V11.4375H6.09375ZM1.875 10.625V7.375H5.625V10.625H1.875ZM1.875 15.5H2.34375C4.33287 15.5 6.24053 14.8152 7.64705 13.5962C9.05357 12.3772 9.84375 10.7239 9.84375 9C9.84375 7.27609 9.05357 5.62279 7.64705 4.40381C6.24053 3.18482 4.33287 2.5 2.34375 2.5H1.875V0.875H14.5312V6.18575C13.7503 6.28333 13.0361 6.62155 12.5195 7.13842C12.003 7.65529 11.7186 8.31619 11.7186 9C11.7186 9.68381 12.003 10.3447 12.5195 10.8616C13.0361 11.3785 13.7503 11.7167 14.5312 11.8142V17.125H1.875V15.5ZM15.4688 17.125V11.8142C16.2497 11.7167 16.9639 11.3785 17.4805 10.8616C17.997 10.3447 18.2814 9.68381 18.2814 9C18.2814 8.31619 17.997 7.65529 17.4805 7.13842C16.9639 6.62155 16.2497 6.28333 15.4688 6.18575V0.875H28.125V2.5H27.6562C25.6671 2.5 23.7595 3.18482 22.3529 4.40381C20.9464 5.62279 20.1562 7.27609 20.1562 9C20.1562 10.7239 20.9464 12.3772 22.3529 13.5962C23.7595 14.8152 25.6671 15.5 27.6562 15.5H28.125V17.125H15.4688ZM23.9062 6.5625C23.7819 6.5625 23.6627 6.6053 23.5748 6.68149C23.4869 6.75767 23.4375 6.86101 23.4375 6.96875V11.0312C23.4375 11.139 23.4869 11.2423 23.5748 11.3185C23.6627 11.3947 23.7819 11.4375 23.9062 11.4375H28.125V14.6875H27.6562C25.9158 14.6875 24.2466 14.0883 23.0159 13.0217C21.7852 11.9551 21.0938 10.5084 21.0938 9C21.0938 7.49158 21.7852 6.04494 23.0159 4.97833C24.2466 3.91172 25.9158 3.3125 27.6562 3.3125H28.125V6.5625H23.9062ZM28.125 7.375V10.625H24.375V7.375H28.125Z" fill="#393939"/>
</svg>
