<svg width="25" height="25" viewBox="0 0 25 25" fill="none" xmlns="http://www.w3.org/2000/svg">
<path d="M23.5352 11.9747V9.02726C23.5352 7.57921 22.383 6.39586 20.9473 6.3442V4.53507C20.9473 3.59274 20.1806 2.82609 19.2383 2.82609H14.5333L13.9257 1.13727C13.7708 0.706603 13.4572 0.362463 13.0428 0.168273C12.6283 -0.0259651 12.1632 -0.0466683 11.7332 0.109875L3.19531 3.21735C2.76572 3.37369 2.423 3.6881 2.23022 4.10265C2.03745 4.5172 2.01787 4.9819 2.17515 5.41119L2.51816 6.34747C1.11509 6.43424 0 7.6027 0 9.02726V22.3085C0 23.7893 1.20474 24.9941 2.68555 24.9941H20.8496C22.3304 24.9941 23.5352 23.7893 23.5352 22.3085V19.2634C24.3622 19.1446 25 18.4316 25 17.5722V13.6659C25 12.8065 24.3622 12.0935 23.5352 11.9747ZM23.5352 17.5722C23.5352 17.7068 23.4256 17.8163 23.291 17.8163H19.3848C18.1732 17.8163 17.1875 16.8306 17.1875 15.6191C17.1875 14.4075 18.1732 13.4218 19.3848 13.4218H23.291C23.4256 13.4218 23.5352 13.5313 23.5352 13.6659V17.5722ZM3.55059 4.90729C3.52026 4.82452 3.54248 4.75465 3.55845 4.72032C3.57441 4.68605 3.61353 4.62399 3.69634 4.59386L12.2341 1.48639C12.317 1.45626 12.3869 1.47867 12.4212 1.49474C12.4556 1.5108 12.5175 1.55016 12.5474 1.63317L12.9766 2.82613H12.6465C11.7042 2.82613 10.9375 3.59278 10.9375 4.53512V6.34176H4.07612L3.55059 4.90729ZM19.4824 4.53507V6.34171H12.4023V4.53507C12.4023 4.40045 12.5119 4.29093 12.6465 4.29093H19.2383C19.3729 4.29093 19.4824 4.40045 19.4824 4.53507ZM20.8496 23.5292H2.68555C2.01245 23.5292 1.46484 22.9816 1.46484 22.3085V9.02726C1.46484 8.35416 2.01245 7.80655 2.68555 7.80655H20.8496C21.5227 7.80655 22.0703 8.35416 22.0703 9.02726V11.9569H19.3848C17.3655 11.9569 15.7227 13.5998 15.7227 15.6191C15.7227 17.6383 17.3655 19.2812 19.3848 19.2812H22.0703V22.3085C22.0703 22.9816 21.5227 23.5292 20.8496 23.5292Z" fill="#393939" fill-opacity="0.5"/>
</svg>
